<svg width="842" height="267" viewBox="0 0 842 267" fill="none" xmlns="http://www.w3.org/2000/svg">
<path d="M250.504 189.5C250.504 199.667 247.754 208.167 242.254 215C236.921 221.667 229.671 226.667 220.504 230C211.337 233.333 201.254 235 190.254 235H103.754V57.5H202.504C210.837 57.5 218.004 59.75 224.004 64.25C230.171 68.5833 234.837 74.25 238.004 81.25C241.337 88.25 243.004 95.5 243.004 103C243.004 111.333 240.837 119.333 236.504 127C232.171 134.5 225.837 140.167 217.504 144C227.671 147 235.671 152.333 241.504 160C247.504 167.667 250.504 177.5 250.504 189.5ZM208.754 181.25C208.754 177.417 208.004 174.083 206.504 171.25C205.004 168.25 203.004 165.917 200.504 164.25C198.171 162.417 195.337 161.5 192.004 161.5H144.754V200.25H190.254C193.754 200.25 196.837 199.417 199.504 197.75C202.337 196.083 204.587 193.833 206.254 191C207.921 188.167 208.754 184.917 208.754 181.25ZM144.754 92.5V129.25H185.004C188.004 129.25 190.754 128.583 193.254 127.25C195.921 125.917 198.087 123.917 199.754 121.25C201.421 118.417 202.254 114.917 202.254 110.75C202.254 106.75 201.504 103.417 200.004 100.75C198.671 98.0833 196.837 96.0833 194.504 94.75C192.171 93.25 189.504 92.5 186.504 92.5H144.754ZM359.902 236.5C346.569 236.5 334.486 234 323.652 229C312.986 223.833 303.736 217 295.902 208.5C288.236 199.833 282.319 190.167 278.152 179.5C273.986 168.667 271.902 157.5 271.902 146C271.902 134.167 274.069 122.917 278.402 112.25C282.902 101.583 289.069 92.0833 296.902 83.75C304.902 75.25 314.319 68.5833 325.152 63.75C335.986 58.9167 347.819 56.5 360.652 56.5C373.819 56.5 385.736 59.0833 396.402 64.25C407.236 69.25 416.486 76.0833 424.152 84.75C431.986 93.4167 437.986 103.167 442.152 114C446.319 124.667 448.402 135.583 448.402 146.75C448.402 158.583 446.236 169.833 441.902 180.5C437.569 191.167 431.402 200.75 423.402 209.25C415.402 217.583 405.986 224.25 395.152 229.25C384.486 234.083 372.736 236.5 359.902 236.5ZM313.652 146.5C313.652 153.333 314.652 160 316.652 166.5C318.652 172.833 321.569 178.5 325.402 183.5C329.402 188.5 334.319 192.5 340.152 195.5C345.986 198.5 352.652 200 360.152 200C367.986 200 374.819 198.5 380.652 195.5C386.486 192.333 391.319 188.167 395.152 183C398.986 177.833 401.819 172.083 403.652 165.75C405.652 159.25 406.652 152.667 406.652 146C406.652 139.167 405.652 132.583 403.652 126.25C401.652 119.917 398.652 114.25 394.652 109.25C390.652 104.083 385.736 100.083 379.902 97.25C374.069 94.4167 367.486 93 360.152 93C352.319 93 345.486 94.5 339.652 97.5C333.986 100.5 329.152 104.583 325.152 109.75C321.319 114.75 318.402 120.5 316.402 127C314.569 133.333 313.652 139.833 313.652 146.5ZM479.594 235V57.5H520.594V199H606.594V235H479.594ZM633.334 235V57.5H699.584C719.084 57.5 735.334 61.5 748.334 69.5C761.501 77.3333 771.417 88 778.084 101.5C784.751 114.833 788.084 129.667 788.084 146C788.084 164 784.417 179.667 777.084 193C769.751 206.333 759.417 216.667 746.084 224C732.917 231.333 717.417 235 699.584 235H633.334ZM746.334 146C746.334 135.667 744.501 126.583 740.834 118.75C737.167 110.75 731.834 104.583 724.834 100.25C717.834 95.75 709.417 93.5 699.584 93.5H674.334V199H699.584C709.584 199 718.001 196.75 724.834 192.25C731.834 187.583 737.167 181.25 740.834 173.25C744.501 165.083 746.334 156 746.334 146Z" fill="white"/>
<path d="M30.86 200.42C30.6267 200.56 30.2767 201.05 29.81 201.89C29.2967 202.73 28.76 203.78 28.2 205.04C27.64 206.3 27.15 207.677 26.73 209.17C26.31 210.663 26.1 212.157 26.1 213.65C26.1 215.61 26.45 217.127 27.15 218.2C27.8033 219.273 28.83 219.81 30.23 219.81C31.35 219.81 32.2367 219.413 32.89 218.62C33.5433 217.78 34.1267 216.59 34.64 215.05C35.1067 213.51 35.6667 211.62 36.32 209.38C37.16 206.207 38.1867 203.453 39.4 201.12C40.5667 198.787 42.0833 197.013 43.95 195.8C45.8167 194.54 48.29 193.91 51.37 193.91C54.17 193.91 56.55 194.423 58.51 195.45C60.4233 196.477 61.9867 197.877 63.2 199.65C64.3667 201.377 65.23 203.36 65.79 205.6C66.3033 207.84 66.56 210.15 66.56 212.53C66.56 214.957 66.3267 217.453 65.86 220.02C65.3467 222.54 64.6467 224.967 63.76 227.3C62.8267 229.633 61.7067 231.78 60.4 233.74L50.39 228.7C50.6233 228.513 51.0667 227.907 51.72 226.88C52.3267 225.853 52.98 224.593 53.68 223.1C54.3333 221.56 54.9167 219.857 55.43 217.99C55.9433 216.123 56.2 214.233 56.2 212.32C56.2 210.267 55.8733 208.75 55.22 207.77C54.5667 206.743 53.6567 206.23 52.49 206.23C51.23 206.23 50.25 206.767 49.55 207.84C48.85 208.867 48.22 210.29 47.66 212.11C47.1 213.883 46.47 215.937 45.77 218.27C44.8367 221.303 43.7867 223.823 42.62 225.83C41.4533 227.79 40.03 229.26 38.35 230.24C36.67 231.173 34.57 231.64 32.05 231.64C28.55 231.64 25.61 230.823 23.23 229.19C20.8033 227.51 18.9833 225.27 17.77 222.47C16.51 219.67 15.88 216.613 15.88 213.3C15.88 210.967 16.16 208.727 16.72 206.58C17.28 204.387 17.98 202.357 18.82 200.49C19.66 198.577 20.5 196.873 21.34 195.38L30.86 200.42ZM16.3 144.404H66V155.884H45.63V175.694H66V187.174H16.3L16.3 175.694H35.55V155.884H16.3V144.404ZM66.42 113.109C66.42 116.842 65.72 120.225 64.32 123.259C62.8733 126.245 60.96 128.835 58.58 131.029C56.1533 133.175 53.4467 134.832 50.46 135.999C47.4267 137.165 44.3 137.749 41.08 137.749C37.7667 137.749 34.6167 137.142 31.63 135.929C28.6433 134.669 25.9833 132.942 23.65 130.749C21.27 128.509 19.4033 125.872 18.05 122.839C16.6967 119.805 16.02 116.492 16.02 112.899C16.02 109.212 16.7433 105.875 18.19 102.889C19.59 99.8553 21.5033 97.2653 23.93 95.1187C26.3567 92.9253 29.0867 91.2453 32.12 90.0787C35.1067 88.912 38.1633 88.3287 41.29 88.3287C44.6033 88.3287 47.7533 88.9353 50.74 90.1487C53.7267 91.362 56.41 93.0887 58.79 95.3287C61.1233 97.5687 62.99 100.205 64.39 103.239C65.7433 106.225 66.42 109.515 66.42 113.109ZM41.22 126.059C43.1333 126.059 45 125.779 46.82 125.219C48.5933 124.659 50.18 123.842 51.58 122.769C52.98 121.649 54.1 120.272 54.94 118.639C55.78 117.005 56.2 115.139 56.2 113.039C56.2 110.845 55.78 108.932 54.94 107.299C54.0533 105.665 52.8867 104.312 51.44 103.239C49.9933 102.165 48.3833 101.372 46.61 100.859C44.79 100.299 42.9467 100.019 41.08 100.019C39.1667 100.019 37.3233 100.299 35.55 100.859C33.7767 101.419 32.19 102.259 30.79 103.379C29.3433 104.499 28.2233 105.875 27.43 107.509C26.6367 109.142 26.24 110.985 26.24 113.039C26.24 115.232 26.66 117.145 27.5 118.779C28.34 120.365 29.4833 121.719 30.93 122.839C32.33 123.912 33.94 124.729 35.76 125.289C37.5333 125.802 39.3533 126.059 41.22 126.059ZM66 81.6951H16.3V60.4851C16.3 58.1051 16.79 55.9351 17.77 53.9751C18.7033 51.9684 19.9867 50.2417 21.62 48.7951C23.2067 47.3484 25.0033 46.2284 27.01 45.4351C29.0167 44.6417 31.07 44.2451 33.17 44.2451C36.0167 44.2451 38.7233 44.9217 41.29 46.2751C43.8567 47.5817 45.9567 49.4251 47.59 51.8051C49.1767 54.1384 49.97 56.9151 49.97 60.1351V70.2151H66V81.6951ZM39.96 70.2151V60.8351C39.96 59.9484 39.7033 59.1317 39.19 58.3851C38.6767 57.6384 37.9067 57.0317 36.88 56.5651C35.8533 56.0984 34.5933 55.8651 33.1 55.8651C31.56 55.8651 30.3 56.1451 29.32 56.7051C28.2933 57.2184 27.5467 57.8951 27.08 58.7351C26.6133 59.5284 26.38 60.3684 26.38 61.2551V70.2151H39.96Z" fill="white"/>
<circle cx="819" cy="212" r="23" fill="white"/>
</svg>
